<svg width="29" height="32" viewBox="0 0 29 32" fill="none" xmlns="http://www.w3.org/2000/svg">
<path d="M8.39359 27.7052C7.86965 27.8799 7.58649 28.4462 7.76113 28.9701C7.93578 29.4941 8.5021 29.7772 9.02604 29.6026L8.39359 27.7052ZM17.2565 29.2237L17.1657 28.2278L17.2565 29.2237ZM22.3844 28.0841L22.823 28.9828L22.3844 28.0841ZM27.2843 23.6268L26.5072 22.9974V22.9974L27.2843 23.6268ZM23.9331 20.8377L24.6402 21.5449L23.9331 20.8377ZM21.6764 23.0944L22.3835 23.8015L21.6764 23.0944ZM15.5471 23.0957C14.9948 23.0957 14.5471 23.5434 14.5471 24.0957C14.5471 24.648 14.9948 25.0957 15.5471 25.0957V23.0957ZM26.7633 20.5575L26.2086 21.3896L26.7633 20.5575ZM10.4442 19.8099L10.8914 20.7043H10.8914L10.4442 19.8099ZM16.5777 19.2488L16.8408 18.284L16.5777 19.2488ZM18.973 19.9021L18.7098 20.8668L18.973 19.9021ZM19.7319 22.7598L19.0248 22.0527L19.0248 22.0527L19.7319 22.7598ZM17.6889 23.3886C17.2984 23.7791 17.2984 24.4123 17.6889 24.8028C18.0794 25.1933 18.7126 25.1933 19.1031 24.8028L17.6889 23.3886ZM9.02604 29.6026C9.25859 29.5251 9.66433 29.4916 10.2946 29.5365C10.9044 29.58 11.611 29.6863 12.4006 29.8103C13.9211 30.0492 15.7713 30.3631 17.3472 30.2196L17.1657 28.2278C15.8927 28.3438 14.3243 28.088 12.711 27.8346C11.9337 27.7125 11.1446 27.5921 10.4369 27.5416C9.74952 27.4926 9.0157 27.4979 8.39359 27.7052L9.02604 29.6026ZM17.3472 30.2196C18.4173 30.1221 19.2787 30.0792 20.0812 29.9339C20.9344 29.7795 21.7393 29.5117 22.823 28.9828L21.9459 27.1854C20.9902 27.6518 20.3611 27.8508 19.725 27.9659C19.0383 28.0902 18.3554 28.1194 17.1657 28.2278L17.3472 30.2196ZM22.823 28.9828C23.847 28.4831 24.8508 27.668 25.7299 26.8234C26.6186 25.9694 27.4285 25.0377 28.0614 24.2561L26.5072 22.9974C25.9055 23.7403 25.153 24.6041 24.3442 25.3812C23.5258 26.1675 22.6971 26.8188 21.9459 27.1854L22.823 28.9828ZM23.226 20.1306L20.9693 22.3873L22.3835 23.8015L24.6402 21.5449L23.226 20.1306ZM19.2591 23.0957H15.5471V25.0957H19.2591V23.0957ZM20.9693 22.3873C20.5157 22.8409 19.9005 23.0957 19.2591 23.0957V25.0957C20.431 25.0957 21.5549 24.6302 22.3835 23.8015L20.9693 22.3873ZM27.318 19.7255C26.0318 18.8679 24.3191 19.0375 23.226 20.1306L24.6402 21.5449C25.0591 21.1259 25.7156 21.0609 26.2086 21.3896L27.318 19.7255ZM28.0614 24.2561C29.2472 22.792 28.8083 20.719 27.318 19.7255L26.2086 21.3896C26.7971 21.7819 26.8939 22.5199 26.5072 22.9974L28.0614 24.2561ZM2.44229 19.398H7.00049V17.398H2.44229V19.398ZM7.14004 19.5375V29.7935H9.14004V19.5375H7.14004ZM7.00049 29.933H2.44229V31.933H7.00049V29.933ZM2.30273 29.7935V19.5375H0.302734V29.7935H2.30273ZM2.44229 29.933C2.36521 29.933 2.30273 29.8705 2.30273 29.7935H0.302734C0.302734 30.9751 1.26065 31.933 2.44229 31.933V29.933ZM7.14004 29.7935C7.14004 29.8705 7.07756 29.933 7.00049 29.933V31.933C8.18213 31.933 9.14004 30.9751 9.14004 29.7935H7.14004ZM7.00049 19.398C7.07756 19.398 7.14004 19.4604 7.14004 19.5375H9.14004C9.14004 18.3559 8.18213 17.398 7.00049 17.398V19.398ZM2.44229 17.398C1.26064 17.398 0.302734 18.3559 0.302734 19.5375H2.30273C2.30273 19.4604 2.36521 19.398 2.44229 19.398V17.398ZM9.15703 21.5715L10.8914 20.7043L9.99698 18.9154L8.2626 19.7826L9.15703 21.5715ZM14.0116 19.9677H14.4789V17.9677H14.0116V19.9677ZM16.3146 20.2136L18.7098 20.8668L19.2361 18.9373L16.8408 18.284L16.3146 20.2136ZM19.0248 22.0527L17.6889 23.3886L19.1031 24.8028L20.439 23.4669L19.0248 22.0527ZM18.7098 20.8668C19.2353 21.0101 19.4099 21.6676 19.0248 22.0527L20.439 23.4669C21.91 21.996 21.2431 19.4846 19.2361 18.9373L18.7098 20.8668ZM14.4789 19.9677C15.099 19.9677 15.7163 20.0504 16.3146 20.2136L16.8408 18.284C16.0711 18.0741 15.2768 17.9677 14.4789 17.9677V19.9677ZM10.8914 20.7043C11.8602 20.2199 12.9284 19.9677 14.0116 19.9677V17.9677C12.6179 17.9677 11.2435 18.2922 9.99698 18.9154L10.8914 20.7043ZM21.9542 10.4211C21.9542 12.3862 20.3611 13.9793 18.396 13.9793V15.9793C21.4657 15.9793 23.9542 13.4908 23.9542 10.4211H21.9542ZM18.396 13.9793C16.4309 13.9793 14.8378 12.3862 14.8378 10.4211H12.8378C12.8378 13.4908 15.3263 15.9793 18.396 15.9793V13.9793ZM14.8378 10.4211C14.8378 8.45595 16.4309 6.86289 18.396 6.86289V4.86289C15.3263 4.86289 12.8378 7.35138 12.8378 10.4211H14.8378ZM18.396 6.86289C20.3611 6.86289 21.9542 8.45595 21.9542 10.4211H23.9542C23.9542 7.35138 21.4657 4.86289 18.396 4.86289V6.86289ZM13.8378 9.4211C11.8727 9.4211 10.2796 7.82803 10.2796 5.86289H8.27959C8.27959 8.9326 10.7681 11.4211 13.8378 11.4211V9.4211ZM10.2796 5.86289C10.2796 3.89775 11.8727 2.30469 13.8378 2.30469V0.304688C10.7681 0.304688 8.27959 2.79318 8.27959 5.86289H10.2796ZM13.8378 2.30469C15.8029 2.30469 17.396 3.89775 17.396 5.86289H19.396C19.396 2.79318 16.9075 0.304688 13.8378 0.304688V2.30469Z" fill="white"/>
</svg>
