<svg width="50" height="27" viewBox="0 0 50 27" fill="none" xmlns="http://www.w3.org/2000/svg">
<path d="M26.0612 1.36155C26.0612 0.574461 26.1924 0.443291 26.8921 0.443291C27.5917 0.443291 27.7229 0.530734 27.7229 1.36155V9.53848C27.7229 9.93203 27.9415 10.3256 28.3788 10.3256H34.2382C34.7629 10.3256 34.8504 9.8883 34.8504 9.53848V6.65249C34.8504 5.82168 34.9815 5.73424 35.6812 5.73424C36.3808 5.73424 36.512 5.82168 36.512 6.65249V9.53848C36.512 9.93203 36.7306 10.3256 37.1679 10.3256H41.1033C41.628 10.3256 41.5406 9.8883 41.5406 9.53848V6.65249C41.5406 5.82168 41.8904 5.73424 42.59 5.73424C43.2896 5.73424 43.6395 5.82168 43.6395 6.65249V9.53848C43.6395 9.93203 43.6395 10.3256 44.1642 10.3256H47.1376C47.6623 10.3256 47.8372 9.8883 47.8372 9.53848V6.65249C47.8372 5.82168 47.9684 5.73424 48.6681 5.73424C49.3677 5.73424 49.4989 5.82168 49.4989 6.65249V9.53848C49.4989 11.2876 49.0616 11.6374 47.4 11.6374H28.1164C26.4548 11.6374 26.0612 11.2438 26.0612 9.53848V1.36155ZM13.6865 0.749358C14.1238 1.31781 14.1238 1.49274 13.4679 1.97373L9.00774 5.55932C8.87655 5.64677 8.83282 5.95287 9.13891 5.95287H15.4793C17.0098 5.95287 17.2284 6.12777 17.2284 7.61449V9.49474C17.2284 9.88828 17.4033 10.2818 17.8406 10.2818H21.776C22.257 10.2818 22.2133 9.84456 22.2133 9.49474V6.60878C22.2133 5.77796 22.5631 5.69052 23.2627 5.69052C23.9624 5.69052 24.3122 5.77796 24.3122 6.60878V9.49474C24.3122 11.2438 23.7874 11.5937 22.0821 11.5937H0C0.131181 10.7191 1.09316 10.2818 2.36124 10.2818H14.9109C15.3044 10.2818 15.5231 10.0195 15.5231 9.62594V7.74567C15.5231 7.39585 15.3481 7.22096 14.9109 7.22096H7.95831C6.77768 7.22096 6.42786 6.56504 6.42786 5.99659C6.42786 5.47187 6.82139 5.0346 7.25866 4.68478L12.4622 0.574466C13.1181 0.137197 13.2493 0.137181 13.6865 0.749358ZM20.5517 14.9606L20.1144 15.4416C19.5897 15.9663 19.1524 16.0101 18.7151 15.6165C18.2778 15.1792 18.3216 14.6983 18.8463 14.1735L19.3273 13.6925C19.852 13.1678 20.2893 13.1241 20.7265 13.5176C21.1201 13.9549 21.0764 14.4359 20.5517 14.9606Z" fill="#0047AF"/>
<path d="M20.8578 26.5042C21.9509 26.5042 22.3007 26.1544 22.3007 25.0612V24.4053C22.3007 23.2684 21.9947 23.0061 20.8578 23.0061H17.2722C17.2284 23.0061 17.1847 23.0061 17.1847 22.9624C17.1847 22.8312 18.7151 21.8254 21.6448 21.738C22.1258 21.738 22.1696 21.5193 22.1696 21.0821C22.1696 20.6885 22.0384 20.4699 21.5137 20.4699C17.6657 20.4699 15.4356 22.4814 15.4356 23.5308C15.4356 24.0118 15.698 24.3179 16.7037 24.3179H20.5079C20.814 24.3179 20.6391 24.3179 20.6391 24.5365V24.9301C20.6391 25.1487 20.7703 25.1924 20.5079 25.1924H15.3919C14.4736 25.1924 13.774 25.6297 13.6428 26.5042H20.8578ZM40.0539 18.8957L39.7478 19.2018C39.3105 19.6391 39.0044 19.6828 38.6546 19.333C38.3048 18.9832 38.3485 18.5897 38.7858 18.1961L39.0919 17.8463C39.5291 17.4528 39.8352 17.3653 40.185 17.7151C40.4911 18.1087 40.4474 18.5022 40.0539 18.8957ZM23.7874 26.5042C23.2627 26.5042 22.8692 26.3293 22.8692 25.586C22.8692 22.5251 26.0175 20.4699 27.2856 20.4699C27.7229 20.4699 27.8103 20.776 27.8103 21.1695V23.0935C27.8103 23.6183 27.8103 23.7932 27.1982 23.7932C26.6297 23.7932 26.586 23.6183 26.586 23.0935V22.0878C26.586 22.0441 26.6297 22.0441 26.6297 22.0441C26.105 22.0441 24.3122 23.662 24.3122 24.9738C24.3122 25.105 24.3559 25.1924 24.7057 25.1924H28.3788C28.6849 25.1924 28.6849 25.105 28.6849 24.8426V19.5954C28.6849 18.9832 28.991 18.852 29.5157 18.852C30.0404 18.852 30.3465 18.9395 30.3465 19.5954V24.8426C30.3465 26.1107 29.8218 26.5042 28.5974 26.5042H23.7874ZM32.6203 26.5042C31.3959 26.5042 31.0898 26.1107 31.0898 24.8426V16.3159C31.0898 15.7037 31.1773 15.6162 31.702 15.6162C32.2268 15.6162 32.3142 15.7037 32.3142 16.3159V24.8426C32.3142 25.105 32.4891 25.1924 32.7952 25.1924H36.4245C36.7744 25.1924 36.7743 25.105 36.7743 24.9738C36.7743 24.3616 35.9435 22.5688 33.3637 21.7817C32.8827 21.6505 32.8389 21.3882 33.0138 20.9509C33.1887 20.4699 33.4948 20.4699 33.8446 20.5574C36.8618 21.4756 38.1736 23.5745 38.1736 25.586C38.1736 26.3293 37.7364 26.5042 37.2554 26.5042H32.6203ZM39.0482 25.6297V21.9129C39.0482 21.8254 39.1356 21.6943 39.0044 21.6943H38.7421C38.2173 21.6943 38.0424 21.5194 38.0424 21.0384C38.0424 20.5574 38.2173 20.3825 38.7421 20.3825H39.879C40.2725 20.3825 40.36 20.6885 40.36 21.1258V25.7609C40.36 26.373 40.2288 26.5042 39.7478 26.5042C39.223 26.5042 39.0919 26.4168 39.0919 25.7609V25.6297H39.0482ZM41.322 25.586C41.322 23.3559 43.1585 20.4699 46.919 20.4699C47.3563 20.4699 47.4437 20.776 47.4437 21.1695V23.0935C47.4437 23.6183 47.4 23.7932 46.8315 23.7932C46.2631 23.7932 46.2194 23.6183 46.2194 23.0935V22.0878C46.2194 21.9129 46.2194 21.8692 46.1319 21.8692C44.1205 21.8692 42.6775 24.0118 42.6775 24.9738C42.6775 25.105 42.7212 25.1924 43.071 25.1924H47.9247C48.843 25.1924 49.5426 25.6297 49.6738 26.5042H42.3277C41.7592 26.5042 41.322 26.3293 41.322 25.586Z" fill="#FF9700"/>
</svg>
