<svg width="28" height="27" viewBox="0 0 28 27" fill="none" xmlns="http://www.w3.org/2000/svg">
<path d="M17.387 20.1013H18.0379C18.5902 20.1013 19.0379 20.549 19.0379 21.1013V25.2394H25.1672C25.7195 25.2394 26.1672 24.7917 26.1672 24.2394V3.24925C26.1672 2.14468 25.2718 1.24925 24.1672 1.24925H17.387" stroke="white" stroke-width="2"/>
<path d="M17.387 20.1013H16.736C16.1837 20.1013 15.736 20.549 15.736 21.1013V25.2394H9.60669C9.0544 25.2394 8.60669 24.7917 8.60669 24.2394V3.24925C8.60669 2.14468 9.50212 1.24925 10.6067 1.24925H17.387" stroke="white" stroke-width="2"/>
<path d="M9.57355 25.2394L2.68385 25.2395C2.13156 25.2395 1.68384 24.7918 1.68384 24.2395L1.68384 12.7109C1.68384 11.6064 2.57927 10.7109 3.68384 10.7109H8.04471" stroke="white" stroke-width="2"/>
<path d="M14.5994 7.80762H13.5994C13.0471 7.80762 12.5994 7.3599 12.5994 6.80762V5.80762C12.5994 5.25533 13.0471 4.80762 13.5994 4.80762H14.5994C15.1516 4.80762 15.5994 5.25533 15.5994 5.80762V6.80762C15.5994 7.3599 15.1516 7.80762 14.5994 7.80762Z" fill="white"/>
<path d="M14.5994 12.7568H13.5994C13.0471 12.7568 12.5994 12.3091 12.5994 11.7568V10.7568C12.5994 10.2046 13.0471 9.75684 13.5994 9.75684H14.5994C15.1516 9.75684 15.5994 10.2046 15.5994 10.7568V11.7568C15.5994 12.3091 15.1516 12.7568 14.5994 12.7568Z" fill="white"/>
<path d="M14.5994 17.4883H13.5994C13.0471 17.4883 12.5994 17.0406 12.5994 16.4883V15.4883C12.5994 14.936 13.0471 14.4883 13.5994 14.4883H14.5994C15.1516 14.4883 15.5994 14.936 15.5994 15.4883V16.4883C15.5994 17.0406 15.1516 17.4883 14.5994 17.4883Z" fill="white"/>
<path d="M20.7771 7.80762H19.7771C19.2248 7.80762 18.7771 7.3599 18.7771 6.80762V5.80762C18.7771 5.25533 19.2248 4.80762 19.7771 4.80762H20.7771C21.3294 4.80762 21.7771 5.25533 21.7771 5.80762V6.80762C21.7771 7.3599 21.3294 7.80762 20.7771 7.80762Z" fill="white"/>
<path d="M20.7771 12.7568H19.7771C19.2248 12.7568 18.7771 12.3091 18.7771 11.7568V10.7568C18.7771 10.2046 19.2248 9.75684 19.7771 9.75684H20.7771C21.3294 9.75684 21.7771 10.2046 21.7771 10.7568V11.7568C21.7771 12.3091 21.3294 12.7568 20.7771 12.7568Z" fill="white"/>
<path d="M20.7771 17.4883H19.7771C19.2248 17.4883 18.7771 17.0406 18.7771 16.4883V15.4883C18.7771 14.936 19.2248 14.4883 19.7771 14.4883H20.7771C21.3294 14.4883 21.7771 14.936 21.7771 15.4883V16.4883C21.7771 17.0406 21.3294 17.4883 20.7771 17.4883Z" fill="white"/>
</svg>
