<svg width="91" height="92" viewBox="0 0 91 92" fill="none" xmlns="http://www.w3.org/2000/svg">
<rect width="91" height="92" fill="#E5E5E5"/>
<rect x="-150" y="-119" width="390" height="1505" rx="30" fill="black"/>
<circle cx="45.5" cy="45.9741" r="44.25" fill="black" stroke="#2C2A2A" stroke-width="2.5"/>
<path d="M45.2133 43.4161C39.2839 43.4161 34.4482 38.5676 34.4482 32.6222C34.4482 26.6769 39.2838 21.886 45.2133 21.886C51.1428 21.886 55.9783 26.7345 55.9783 32.6799C55.9783 38.6252 51.1428 43.4161 45.2133 43.4161ZM45.2133 23.0404C39.9171 23.0404 35.5996 27.3695 35.5996 32.6799C35.5996 37.9903 39.9171 42.2618 45.2133 42.2618C50.5095 42.2618 54.827 37.9327 54.827 32.6223C54.827 27.3119 50.5095 23.0404 45.2133 23.0404V23.0404Z" fill="#2C2A2A" stroke="#2C2A2A"/>
<path d="M62.3677 68.8612H28.0589C26.1906 68.8612 24.6617 67.3448 24.6617 65.4916V62.6837C24.6617 55.2709 29.7005 48.9816 36.9472 47.353C37.1171 47.297 37.2869 47.353 37.4002 47.4654C39.6646 49.0938 42.3824 49.9364 45.2132 49.9364C48.044 49.9364 50.7049 49.0942 53.0262 47.4654C53.1395 47.353 53.3094 47.353 53.4792 47.353C60.7259 48.9814 65.7647 55.3272 65.7647 62.6837V65.4916C65.7647 67.3447 64.236 68.8612 62.3676 68.8612H62.3677ZM36.9474 48.5325C30.3235 50.1608 25.7376 55.9454 25.7376 62.7401V65.5479C25.7376 66.7834 26.7565 67.794 28.002 67.794H62.3674C63.613 67.794 64.6319 66.7834 64.6319 65.5479V62.7401C64.6319 55.945 60.0461 50.161 53.4221 48.5325C50.9878 50.2173 48.157 51.0595 45.156 51.0595C42.1558 51.0595 39.3816 50.1609 36.9469 48.5325H36.9474Z" fill="#2C2A2A" stroke="#2C2A2A"/>
</svg>
