<svg width="21" height="21" viewBox="0 0 21 21" fill="none" xmlns="http://www.w3.org/2000/svg">
<path d="M13.7995 9.73633L12.8995 10.6563C12.1795 11.3763 11.7295 11.9863 11.7295 13.4863H9.72949V12.9863C9.72949 11.8763 10.1795 10.8763 10.8995 10.1563L12.1395 8.89633C12.5095 8.53633 12.7295 8.03633 12.7295 7.48633C12.7295 6.37633 11.8295 5.48633 10.7295 5.48633C10.1991 5.48633 9.69035 5.69704 9.31528 6.07211C8.94021 6.44719 8.72949 6.9559 8.72949 7.48633H6.72949C6.72949 6.42546 7.15092 5.40805 7.90106 4.6579C8.65121 3.90776 9.66863 3.48633 10.7295 3.48633C11.7904 3.48633 12.8078 3.90776 13.5579 4.6579C14.3081 5.40805 14.7295 6.42546 14.7295 7.48633C14.7295 8.36633 14.3695 9.15633 13.7995 9.73633ZM11.7295 17.4863H9.72949V15.4863H11.7295M10.7295 0.486328C9.41627 0.486328 8.11591 0.744986 6.90266 1.24753C5.6894 1.75008 4.58701 2.48667 3.65842 3.41526C1.78306 5.29062 0.729492 7.83416 0.729492 10.4863C0.729492 13.1385 1.78306 15.682 3.65842 17.5574C4.58701 18.486 5.6894 19.2226 6.90266 19.7251C8.11591 20.2277 9.41627 20.4863 10.7295 20.4863C13.3817 20.4863 15.9252 19.4328 17.8006 17.5574C19.6759 15.682 20.7295 13.1385 20.7295 10.4863C20.7295 4.95633 16.2295 0.486328 10.7295 0.486328Z" fill="white"/>
</svg>
