<svg width="18" height="22" viewBox="0 0 18 22" fill="none" xmlns="http://www.w3.org/2000/svg">
<path d="M11.9615 1.71875V5.31875C11.9615 5.98149 12.4988 6.51875 13.1615 6.51875H16.7615M5.36151 6.51875H7.76151M5.36151 10.1187H12.5615M5.36151 13.7187H12.5615M14.9615 3.51875C14.4274 3.04089 13.8732 2.47413 13.5234 2.10603C13.2905 1.86108 12.9689 1.71875 12.6309 1.71875H3.56123C2.23575 1.71875 1.16123 2.79326 1.16123 4.11874L1.16113 18.5187C1.16112 19.8442 2.23564 20.9187 3.56112 20.9187L14.3612 20.9187C15.6866 20.9187 16.7611 19.8443 16.7612 18.5188L16.7615 5.79658C16.7615 5.48974 16.6444 5.19478 16.4315 4.97388C16.0377 4.5654 15.3801 3.89327 14.9615 3.51875Z" stroke="white" stroke-width="2" stroke-linecap="round" stroke-linejoin="round"/>
</svg>
