<svg width="22" height="27" viewBox="0 0 22 27" fill="none" xmlns="http://www.w3.org/2000/svg">
<path d="M1.75781 5.19637L1.3106 4.30194C0.971815 4.47133 0.757812 4.81759 0.757812 5.19637H1.75781ZM10.9615 25.1377L10.4275 25.9832C10.7537 26.1892 11.1693 26.1892 11.4955 25.9832L10.9615 25.1377ZM20.1652 5.19637H21.1652C21.1652 4.81759 20.9512 4.47133 20.6124 4.30194L20.1652 5.19637ZM8.9035 1.62353L8.45628 0.729098L8.9035 1.62353ZM13.0195 1.62352L13.4667 0.729098L13.0195 1.62352ZM14.4129 12.7158C14.9652 12.7158 15.4129 12.2681 15.4129 11.7158C15.4129 11.1635 14.9652 10.7158 14.4129 10.7158V12.7158ZM7.51012 10.7158C6.95783 10.7158 6.51012 11.1635 6.51012 11.7158C6.51012 12.2681 6.95783 12.7158 7.51012 12.7158V10.7158ZM9.9615 15.167C9.9615 15.7193 10.4092 16.167 10.9615 16.167C11.5138 16.167 11.9615 15.7193 11.9615 15.167H9.9615ZM11.9615 8.26426C11.9615 7.71198 11.5138 7.26426 10.9615 7.26426C10.4092 7.26426 9.9615 7.71198 9.9615 8.26426H11.9615ZM8.45628 0.729098L1.3106 4.30194L2.20503 6.09079L9.35071 2.51795L8.45628 0.729098ZM0.757812 5.19637V15.4585H2.75781V5.19637H0.757812ZM0.757812 15.4585C0.757812 17.2402 1.79915 18.9653 3.41952 20.6323C5.06035 22.3203 7.43811 24.0953 10.4275 25.9832L11.4955 24.2922C8.5567 22.4363 6.33261 20.7598 4.85364 19.2383C3.35422 17.6957 2.75781 16.4532 2.75781 15.4585H0.757812ZM11.4955 25.9832C14.4457 24.12 16.8356 22.5339 18.4817 20.9417C20.1551 19.323 21.1652 17.5965 21.1652 15.4585H19.1652C19.1652 16.8639 18.5375 18.1051 17.0912 19.5042C15.6174 20.9297 13.4055 22.4115 10.4275 24.2922L11.4955 25.9832ZM21.1652 15.4585C21.1652 15.4516 21.1652 15.4446 21.1652 15.4377C21.1652 15.4307 21.1652 15.4238 21.1652 15.4168C21.1652 15.4098 21.1652 15.4029 21.1652 15.3959C21.1652 15.3889 21.1652 15.3819 21.1652 15.3749C21.1652 15.3678 21.1652 15.3608 21.1652 15.3538C21.1652 15.3467 21.1652 15.3397 21.1652 15.3326C21.1652 15.3256 21.1652 15.3185 21.1652 15.3114C21.1652 15.3043 21.1652 15.2972 21.1652 15.2901C21.1652 15.283 21.1652 15.2759 21.1652 15.2687C21.1652 15.2616 21.1652 15.2545 21.1652 15.2473C21.1652 15.2401 21.1652 15.233 21.1652 15.2258C21.1652 15.2186 21.1652 15.2114 21.1652 15.2042C21.1652 15.197 21.1652 15.1898 21.1652 15.1826C21.1652 15.1754 21.1652 15.1681 21.1652 15.1609C21.1652 15.1536 21.1652 15.1464 21.1652 15.1391C21.1652 15.1319 21.1652 15.1246 21.1652 15.1173C21.1652 15.11 21.1652 15.1027 21.1652 15.0954C21.1652 15.0881 21.1652 15.0808 21.1652 15.0734C21.1652 15.0661 21.1652 15.0587 21.1652 15.0514C21.1652 15.044 21.1652 15.0367 21.1652 15.0293C21.1652 15.0219 21.1652 15.0145 21.1652 15.0071C21.1652 14.9997 21.1652 14.9923 21.1652 14.9849C21.1652 14.9775 21.1652 14.9701 21.1652 14.9626C21.1652 14.9552 21.1652 14.9477 21.1652 14.9403C21.1652 14.9328 21.1652 14.9253 21.1652 14.9179C21.1652 14.9104 21.1652 14.9029 21.1652 14.8954C21.1652 14.8879 21.1652 14.8804 21.1652 14.8729C21.1652 14.8653 21.1652 14.8578 21.1652 14.8503C21.1652 14.8427 21.1652 14.8352 21.1652 14.8276C21.1652 14.8201 21.1652 14.8125 21.1652 14.8049C21.1652 14.7973 21.1652 14.7897 21.1652 14.7821C21.1652 14.7745 21.1652 14.7669 21.1652 14.7593C21.1652 14.7517 21.1652 14.744 21.1652 14.7364C21.1652 14.7288 21.1652 14.7211 21.1652 14.7135C21.1652 14.7058 21.1652 14.6981 21.1652 14.6905C21.1652 14.6828 21.1652 14.6751 21.1652 14.6674C21.1652 14.6597 21.1652 14.652 21.1652 14.6443C21.1652 14.6365 21.1652 14.6288 21.1652 14.6211C21.1652 14.6134 21.1652 14.6056 21.1652 14.5979C21.1652 14.5901 21.1652 14.5823 21.1652 14.5746C21.1652 14.5668 21.1652 14.559 21.1652 14.5512C21.1652 14.5434 21.1652 14.5356 21.1652 14.5278C21.1652 14.52 21.1652 14.5122 21.1652 14.5044C21.1652 14.4966 21.1652 14.4887 21.1652 14.4809C21.1652 14.473 21.1652 14.4652 21.1652 14.4573C21.1652 14.4495 21.1652 14.4416 21.1652 14.4337C21.1652 14.4258 21.1652 14.4179 21.1652 14.41C21.1652 14.4021 21.1652 14.3942 21.1652 14.3863C21.1652 14.3784 21.1652 14.3705 21.1652 14.3626C21.1652 14.3546 21.1652 14.3467 21.1652 14.3387C21.1652 14.3308 21.1652 14.3228 21.1652 14.3149C21.1652 14.3069 21.1652 14.2989 21.1652 14.291C21.1652 14.283 21.1652 14.275 21.1652 14.267C21.1652 14.259 21.1652 14.251 21.1652 14.243C21.1652 14.235 21.1652 14.2269 21.1652 14.2189C21.1652 14.2109 21.1652 14.2028 21.1652 14.1948C21.1652 14.1867 21.1652 14.1787 21.1652 14.1706C21.1652 14.1626 21.1652 14.1545 21.1652 14.1464C21.1652 14.1383 21.1652 14.1303 21.1652 14.1222C21.1652 14.1141 21.1652 14.106 21.1652 14.0979C21.1652 14.0897 21.1652 14.0816 21.1652 14.0735C21.1652 14.0654 21.1652 14.0572 21.1652 14.0491C21.1652 14.041 21.1652 14.0328 21.1652 14.0247C21.1652 14.0165 21.1652 14.0084 21.1652 14.0002C21.1652 13.992 21.1652 13.9838 21.1652 13.9757C21.1652 13.9675 21.1652 13.9593 21.1652 13.9511C21.1652 13.9429 21.1652 13.9347 21.1652 13.9265C21.1652 13.9182 21.1652 13.91 21.1652 13.9018C21.1652 13.8936 21.1652 13.8853 21.1652 13.8771C21.1652 13.8689 21.1652 13.8606 21.1652 13.8524C21.1652 13.8441 21.1652 13.8358 21.1652 13.8276C21.1652 13.8193 21.1652 13.811 21.1652 13.8027C21.1652 13.7945 21.1652 13.7862 21.1652 13.7779C21.1652 13.7696 21.1652 13.7613 21.1652 13.753C21.1652 13.7447 21.1652 13.7363 21.1652 13.728C21.1652 13.7197 21.1652 13.7114 21.1652 13.703C21.1652 13.6947 21.1652 13.6863 21.1652 13.678C21.1652 13.6696 21.1652 13.6613 21.1652 13.6529C21.1652 13.6446 21.1652 13.6362 21.1652 13.6278C21.1652 13.6194 21.1652 13.6111 21.1652 13.6027C21.1652 13.5943 21.1652 13.5859 21.1652 13.5775C21.1652 13.5691 21.1652 13.5607 21.1652 13.5523C21.1652 13.5439 21.1652 13.5355 21.1652 13.527C21.1652 13.5186 21.1652 13.5102 21.1652 13.5017C21.1652 13.4933 21.1652 13.4849 21.1652 13.4764C21.1652 13.468 21.1652 13.4595 21.1652 13.4511C21.1652 13.4426 21.1652 13.4341 21.1652 13.4257C21.1652 13.4172 21.1652 13.4087 21.1652 13.4002C21.1652 13.3918 21.1652 13.3833 21.1652 13.3748C21.1652 13.3663 21.1652 13.3578 21.1652 13.3493C21.1652 13.3408 21.1652 13.3323 21.1652 13.3238C21.1652 13.3152 21.1652 13.3067 21.1652 13.2982C21.1652 13.2897 21.1652 13.2811 21.1652 13.2726C21.1652 13.2641 21.1652 13.2555 21.1652 13.247C21.1652 13.2384 21.1652 13.2299 21.1652 13.2213C21.1652 13.2128 21.1652 13.2042 21.1652 13.1956C21.1652 13.1871 21.1652 13.1785 21.1652 13.1699C21.1652 13.1613 21.1652 13.1528 21.1652 13.1442C21.1652 13.1356 21.1652 13.127 21.1652 13.1184C21.1652 13.1098 21.1652 13.1012 21.1652 13.0926C21.1652 13.084 21.1652 13.0754 21.1652 13.0668C21.1652 13.0581 21.1652 13.0495 21.1652 13.0409C21.1652 13.0323 21.1652 13.0236 21.1652 13.015C21.1652 13.0064 21.1652 12.9977 21.1652 12.9891C21.1652 12.9805 21.1652 12.9718 21.1652 12.9632C21.1652 12.9545 21.1652 12.9458 21.1652 12.9372C21.1652 12.9285 21.1652 12.9199 21.1652 12.9112C21.1652 12.9025 21.1652 12.8939 21.1652 12.8852C21.1652 12.8765 21.1652 12.8678 21.1652 12.8591C21.1652 12.8504 21.1652 12.8418 21.1652 12.8331C21.1652 12.8244 21.1652 12.8157 21.1652 12.807C21.1652 12.7983 21.1652 12.7896 21.1652 12.7809C21.1652 12.7721 21.1652 12.7634 21.1652 12.7547C21.1652 12.746 21.1652 12.7373 21.1652 12.7286C21.1652 12.7198 21.1652 12.7111 21.1652 12.7024C21.1652 12.6936 21.1652 12.6849 21.1652 12.6762C21.1652 12.6674 21.1652 12.6587 21.1652 12.6499C21.1652 12.6412 21.1652 12.6324 21.1652 12.6237C21.1652 12.6149 21.1652 12.6062 21.1652 12.5974C21.1652 12.5887 21.1652 12.5799 21.1652 12.5711C21.1652 12.5624 21.1652 12.5536 21.1652 12.5448C21.1652 12.536 21.1652 12.5273 21.1652 12.5185C21.1652 12.5097 21.1652 12.5009 21.1652 12.4921C21.1652 12.4834 21.1652 12.4746 21.1652 12.4658C21.1652 12.457 21.1652 12.4482 21.1652 12.4394C21.1652 12.4306 21.1652 12.4218 21.1652 12.413C21.1652 12.4042 21.1652 12.3954 21.1652 12.3866C21.1652 12.3778 21.1652 12.369 21.1652 12.3601C21.1652 12.3513 21.1652 12.3425 21.1652 12.3337C21.1652 12.3249 21.1652 12.3161 21.1652 12.3072C21.1652 12.2984 21.1652 12.2896 21.1652 12.2808C21.1652 12.2719 21.1652 12.2631 21.1652 12.2543C21.1652 12.2454 21.1652 12.2366 21.1652 12.2277C21.1652 12.2189 21.1652 12.2101 21.1652 12.2012C21.1652 12.1924 21.1652 12.1835 21.1652 12.1747C21.1652 12.1658 21.1652 12.157 21.1652 12.1481C21.1652 12.1393 21.1652 12.1304 21.1652 12.1216C21.1652 12.1127 21.1652 12.1039 21.1652 12.095C21.1652 12.0861 21.1652 12.0773 21.1652 12.0684C21.1652 12.0596 21.1652 12.0507 21.1652 12.0418C21.1652 12.033 21.1652 12.0241 21.1652 12.0152C21.1652 12.0063 21.1652 11.9975 21.1652 11.9886C21.1652 11.9797 21.1652 11.9708 21.1652 11.962C21.1652 11.9531 21.1652 11.9442 21.1652 11.9353C21.1652 11.9264 21.1652 11.9176 21.1652 11.9087C21.1652 11.8998 21.1652 11.8909 21.1652 11.882C21.1652 11.8731 21.1652 11.8643 21.1652 11.8554C21.1652 11.8465 21.1652 11.8376 21.1652 11.8287C21.1652 11.8198 21.1652 11.8109 21.1652 11.802C21.1652 11.7931 21.1652 11.7842 21.1652 11.7753C21.1652 11.7664 21.1652 11.7575 21.1652 11.7486C21.1652 11.7397 21.1652 11.7308 21.1652 11.7219C21.1652 11.713 21.1652 11.7041 21.1652 11.6952C21.1652 11.6863 21.1652 11.6774 21.1652 11.6685C21.1652 11.6596 21.1652 11.6507 21.1652 11.6418C21.1652 11.6329 21.1652 11.624 21.1652 11.6151C21.1652 11.6062 21.1652 11.5973 21.1652 11.5884C21.1652 11.5795 21.1652 11.5706 21.1652 11.5617C21.1652 11.5528 21.1652 11.5438 21.1652 11.5349C21.1652 11.526 21.1652 11.5171 21.1652 11.5082C21.1652 11.4993 21.1652 11.4904 21.1652 11.4815C21.1652 11.4726 21.1652 11.4637 21.1652 11.4547C21.1652 11.4458 21.1652 11.4369 21.1652 11.428C21.1652 11.4191 21.1652 11.4102 21.1652 11.4013C21.1652 11.3924 21.1652 11.3835 21.1652 11.3745C21.1652 11.3656 21.1652 11.3567 21.1652 11.3478C21.1652 11.3389 21.1652 11.33 21.1652 11.3211C21.1652 11.3122 21.1652 11.3033 21.1652 11.2944C21.1652 11.2854 21.1652 11.2765 21.1652 11.2676C21.1652 11.2587 21.1652 11.2498 21.1652 11.2409C21.1652 11.232 21.1652 11.2231 21.1652 11.2142C21.1652 11.2053 21.1652 11.1964 21.1652 11.1875C21.1652 11.1785 21.1652 11.1696 21.1652 11.1607C21.1652 11.1518 21.1652 11.1429 21.1652 11.134C21.1652 11.1251 21.1652 11.1162 21.1652 11.1073C21.1652 11.0984 21.1652 11.0895 21.1652 11.0806C21.1652 11.0717 21.1652 11.0628 21.1652 11.0539C21.1652 11.045 21.1652 11.0361 21.1652 11.0272C21.1652 11.0183 21.1652 11.0094 21.1652 11.0005C21.1652 10.9916 21.1652 10.9827 21.1652 10.9738C21.1652 10.9649 21.1652 10.9561 21.1652 10.9472C21.1652 10.9383 21.1652 10.9294 21.1652 10.9205C21.1652 10.9116 21.1652 10.9027 21.1652 10.8938C21.1652 10.8849 21.1652 10.8761 21.1652 10.8672C21.1652 10.8583 21.1652 10.8494 21.1652 10.8405C21.1652 10.8317 21.1652 10.8228 21.1652 10.8139C21.1652 10.805 21.1652 10.7962 21.1652 10.7873C21.1652 10.7784 21.1652 10.7695 21.1652 10.7607C21.1652 10.7518 21.1652 10.7429 21.1652 10.7341C21.1652 10.7252 21.1652 10.7163 21.1652 10.7075C21.1652 10.6986 21.1652 10.6897 21.1652 10.6809C21.1652 10.672 21.1652 10.6632 21.1652 10.6543C21.1652 10.6455 21.1652 10.6366 21.1652 10.6278C21.1652 10.6189 21.1652 10.6101 21.1652 10.6012C21.1652 10.5924 21.1652 10.5835 21.1652 10.5747C21.1652 10.5658 21.1652 10.557 21.1652 10.5482C21.1652 10.5393 21.1652 10.5305 21.1652 10.5217C21.1652 10.5128 21.1652 10.504 21.1652 10.4952C21.1652 10.4863 21.1652 10.4775 21.1652 10.4687C21.1652 10.4599 21.1652 10.4511 21.1652 10.4422C21.1652 10.4334 21.1652 10.4246 21.1652 10.4158C21.1652 10.407 21.1652 10.3982 21.1652 10.3894C21.1652 10.3806 21.1652 10.3718 21.1652 10.363C21.1652 10.3542 21.1652 10.3454 21.1652 10.3366C21.1652 10.3278 21.1652 10.319 21.1652 10.3102C21.1652 10.3014 21.1652 10.2926 21.1652 10.2838C21.1652 10.275 21.1652 10.2663 21.1652 10.2575C21.1652 10.2487 21.1652 10.2399 21.1652 10.2312C21.1652 10.2224 21.1652 10.2136 21.1652 10.2049C21.1652 10.1961 21.1652 10.1873 21.1652 10.1786C21.1652 10.1698 21.1652 10.1611 21.1652 10.1523C21.1652 10.1436 21.1652 10.1348 21.1652 10.1261C21.1652 10.1173 21.1652 10.1086 21.1652 10.0999C21.1652 10.0911 21.1652 10.0824 21.1652 10.0737C21.1652 10.0649 21.1652 10.0562 21.1652 10.0475C21.1652 10.0388 21.1652 10.03 21.1652 10.0213C21.1652 10.0126 21.1652 10.0039 21.1652 9.9952C21.1652 9.9865 21.1652 9.97779 21.1652 9.9691C21.1652 9.9604 21.1652 9.9517 21.1652 9.94301C21.1652 9.93432 21.1652 9.92563 21.1652 9.91695C21.1652 9.90827 21.1652 9.89959 21.1652 9.89092C21.1652 9.88224 21.1652 9.87357 21.1652 9.86491C21.1652 9.85624 21.1652 9.84758 21.1652 9.83892C21.1652 9.83027 21.1652 9.82161 21.1652 9.81296C21.1652 9.80432 21.1652 9.79567 21.1652 9.78703C21.1652 9.77839 21.1652 9.76976 21.1652 9.76113C21.1652 9.7525 21.1652 9.74387 21.1652 9.73525C21.1652 9.72663 21.1652 9.71801 21.1652 9.7094C21.1652 9.70079 21.1652 9.69218 21.1652 9.68358C21.1652 9.67497 21.1652 9.66638 21.1652 9.65778C21.1652 9.64919 21.1652 9.6406 21.1652 9.63202C21.1652 9.62344 21.1652 9.61486 21.1652 9.60628C21.1652 9.59771 21.1652 9.58914 21.1652 9.58058C21.1652 9.57201 21.1652 9.56346 21.1652 9.5549C21.1652 9.54635 21.1652 9.5378 21.1652 9.52926C21.1652 9.52072 21.1652 9.51218 21.1652 9.50365C21.1652 9.49511 21.1652 9.48659 21.1652 9.47807C21.1652 9.46954 21.1652 9.46103 21.1652 9.45252C21.1652 9.44401 21.1652 9.4355 21.1652 9.427C21.1652 9.4185 21.1652 9.41001 21.1652 9.40152C21.1652 9.39303 21.1652 9.38455 21.1652 9.37607C21.1652 9.36759 21.1652 9.35912 21.1652 9.35065C21.1652 9.34219 21.1652 9.33373 21.1652 9.32527C21.1652 9.31682 21.1652 9.30837 21.1652 9.29992C21.1652 9.29148 21.1652 9.28304 21.1652 9.27461C21.1652 9.26618 21.1652 9.25776 21.1652 9.24934C21.1652 9.24092 21.1652 9.23251 21.1652 9.2241C21.1652 9.21569 21.1652 9.20729 21.1652 9.1989C21.1652 9.1905 21.1652 9.18211 21.1652 9.17373C21.1652 9.16535 21.1652 9.15697 21.1652 9.1486C21.1652 9.14023 21.1652 9.13187 21.1652 9.12351C21.1652 9.11515 21.1652 9.1068 21.1652 9.09846C21.1652 9.09011 21.1652 9.08178 21.1652 9.07344C21.1652 9.06511 21.1652 9.05679 21.1652 9.04847C21.1652 9.04015 21.1652 9.03184 21.1652 9.02354C21.1652 9.01523 21.1652 9.00693 21.1652 8.99864C21.1652 8.99035 21.1652 8.98207 21.1652 8.97379C21.1652 8.96551 21.1652 8.95724 21.1652 8.94898C21.1652 8.94071 21.1652 8.93245 21.1652 8.9242C21.1652 8.91595 21.1652 8.90771 21.1652 8.89947C21.1652 8.89124 21.1652 8.88301 21.1652 8.87479C21.1652 8.86656 21.1652 8.85835 21.1652 8.85014C21.1652 8.84193 21.1652 8.83373 21.1652 8.82554C21.1652 8.81735 21.1652 8.80916 21.1652 8.80098C21.1652 8.7928 21.1652 8.78463 21.1652 8.77647C21.1652 8.76831 21.1652 8.76015 21.1652 8.752C21.1652 8.74385 21.1652 8.73571 21.1652 8.72758C21.1652 8.71944 21.1652 8.71132 21.1652 8.7032C21.1652 8.69508 21.1652 8.68697 21.1652 8.67887C21.1652 8.67076 21.1652 8.66267 21.1652 8.65458C21.1652 8.64649 21.1652 8.63841 21.1652 8.63034C21.1652 8.62227 21.1652 8.6142 21.1652 8.60615C21.1652 8.59809 21.1652 8.59004 21.1652 8.582C21.1652 8.57396 21.1652 8.56593 21.1652 8.5579C21.1652 8.54988 21.1652 8.54186 21.1652 8.53386C21.1652 8.52585 21.1652 8.51785 21.1652 8.50986C21.1652 8.50187 21.1652 8.49388 21.1652 8.48591C21.1652 8.47793 21.1652 8.46997 21.1652 8.46201C21.1652 8.45405 21.1652 8.4461 21.1652 8.43816C21.1652 8.43022 21.1652 8.42228 21.1652 8.41436C21.1652 8.40643 21.1652 8.39852 21.1652 8.39061C21.1652 8.3827 21.1652 8.3748 21.1652 8.36691C21.1652 8.35902 21.1652 8.35114 21.1652 8.34327C21.1652 8.3354 21.1652 8.32753 21.1652 8.31968C21.1652 8.31182 21.1652 8.30398 21.1652 8.29614C21.1652 8.2883 21.1652 8.28047 21.1652 8.27265C21.1652 8.26483 21.1652 8.25702 21.1652 8.24922C21.1652 8.24142 21.1652 8.23363 21.1652 8.22584C21.1652 8.21806 21.1652 8.21029 21.1652 8.20252C21.1652 8.19476 21.1652 8.187 21.1652 8.17925C21.1652 8.17151 21.1652 8.16377 21.1652 8.15604C21.1652 8.14831 21.1652 8.14059 21.1652 8.13289C21.1652 8.12518 21.1652 8.11748 21.1652 8.10979C21.1652 8.1021 21.1652 8.09442 21.1652 8.08674C21.1652 8.07907 21.1652 8.07141 21.1652 8.06376C21.1652 8.05611 21.1652 8.04846 21.1652 8.04083C21.1652 8.0332 21.1652 8.02558 21.1652 8.01796C21.1652 8.01035 21.1652 8.00275 21.1652 7.99515C21.1652 7.98756 21.1652 7.97997 21.1652 7.9724C21.1652 7.96483 21.1652 7.95726 21.1652 7.94971C21.1652 7.94215 21.1652 7.93461 21.1652 7.92708C21.1652 7.91954 21.1652 7.91202 21.1652 7.90451C21.1652 7.89699 21.1652 7.88949 21.1652 7.88199C21.1652 7.8745 21.1652 7.86702 21.1652 7.85955C21.1652 7.85207 21.1652 7.84461 21.1652 7.83716C21.1652 7.82971 21.1652 7.82226 21.1652 7.81483C21.1652 7.8074 21.1652 7.79998 21.1652 7.79257C21.1652 7.78516 21.1652 7.77776 21.1652 7.77037C21.1652 7.76298 21.1652 7.7556 21.1652 7.74824C21.1652 7.74087 21.1652 7.73351 21.1652 7.72616C21.1652 7.71882 21.1652 7.71148 21.1652 7.70416C21.1652 7.69683 21.1652 7.68952 21.1652 7.68221C21.1652 7.67491 21.1652 7.66762 21.1652 7.66034C21.1652 7.65306 21.1652 7.64579 21.1652 7.63853C21.1652 7.63127 21.1652 7.62402 21.1652 7.61678C21.1652 7.60954 21.1652 7.60232 21.1652 7.5951C21.1652 7.58789 21.1652 7.58068 21.1652 7.57349C21.1652 7.5663 21.1652 7.55912 21.1652 7.55195C21.1652 7.54478 21.1652 7.53762 21.1652 7.53047C21.1652 7.52332 21.1652 7.51619 21.1652 7.50906C21.1652 7.50194 21.1652 7.49483 21.1652 7.48773C21.1652 7.48062 21.1652 7.47353 21.1652 7.46646C21.1652 7.45938 21.1652 7.45231 21.1652 7.44526C21.1652 7.4382 21.1652 7.43116 21.1652 7.42413C21.1652 7.4171 21.1652 7.41008 21.1652 7.40307C21.1652 7.39606 21.1652 7.38906 21.1652 7.38208C21.1652 7.3751 21.1652 7.36812 21.1652 7.36116C21.1652 7.3542 21.1652 7.34726 21.1652 7.34032C21.1652 7.33338 21.1652 7.32646 21.1652 7.31955C21.1652 7.31264 21.1652 7.30574 21.1652 7.29885C21.1652 7.29196 21.1652 7.28509 21.1652 7.27822C21.1652 7.27136 21.1652 7.26451 21.1652 7.25767C21.1652 7.25083 21.1652 7.24401 21.1652 7.23719C21.1652 7.23038 21.1652 7.22358 21.1652 7.21679C21.1652 7.21 21.1652 7.20323 21.1652 7.19646C21.1652 7.1897 21.1652 7.18295 21.1652 7.17621C21.1652 7.16947 21.1652 7.16275 21.1652 7.15603C21.1652 7.14932 21.1652 7.14262 21.1652 7.13593C21.1652 7.12924 21.1652 7.12257 21.1652 7.11591C21.1652 7.10925 21.1652 7.1026 21.1652 7.09596C21.1652 7.08933 21.1652 7.0827 21.1652 7.07609C21.1652 7.06948 21.1652 7.06289 21.1652 7.0563C21.1652 7.04972 21.1652 7.04315 21.1652 7.03659C21.1652 7.03003 21.1652 7.02349 21.1652 7.01696C21.1652 7.01043 21.1652 7.00391 21.1652 6.99741C21.1652 6.9909 21.1652 6.98441 21.1652 6.97793C21.1652 6.97145 21.1652 6.96499 21.1652 6.95854C21.1652 6.95209 21.1652 6.94565 21.1652 6.93923C21.1652 6.9328 21.1652 6.92639 21.1652 6.92C21.1652 6.9136 21.1652 6.90722 21.1652 6.90085C21.1652 6.89448 21.1652 6.88812 21.1652 6.88178C21.1652 6.87544 21.1652 6.86911 21.1652 6.86279C21.1652 6.85648 21.1652 6.85018 21.1652 6.84389C21.1652 6.83761 21.1652 6.83133 21.1652 6.82507C21.1652 6.81882 21.1652 6.81257 21.1652 6.80634C21.1652 6.80011 21.1652 6.79389 21.1652 6.78769C21.1652 6.78149 21.1652 6.7753 21.1652 6.76912C21.1652 6.76295 21.1652 6.75679 21.1652 6.75065C21.1652 6.7445 21.1652 6.73837 21.1652 6.73225C21.1652 6.72613 21.1652 6.72003 21.1652 6.71394C21.1652 6.70785 21.1652 6.70178 21.1652 6.69572C21.1652 6.68966 21.1652 6.68362 21.1652 6.67759C21.1652 6.67156 21.1652 6.66554 21.1652 6.65954C21.1652 6.65354 21.1652 6.64755 21.1652 6.64158C21.1652 6.63561 21.1652 6.62965 21.1652 6.62371C21.1652 6.61777 21.1652 6.61184 21.1652 6.60593C21.1652 6.60001 21.1652 6.59412 21.1652 6.58823C21.1652 6.58235 21.1652 6.57648 21.1652 6.57063C21.1652 6.56478 21.1652 6.55894 21.1652 6.55312C21.1652 6.54729 21.1652 6.54149 21.1652 6.53569C21.1652 6.5299 21.1652 6.52412 21.1652 6.51836C21.1652 6.5126 21.1652 6.50685 21.1652 6.50112C21.1652 6.49539 21.1652 6.48967 21.1652 6.48397C21.1652 6.47827 21.1652 6.47259 21.1652 6.46692C21.1652 6.46125 21.1652 6.45559 21.1652 6.44995C21.1652 6.44431 21.1652 6.43869 21.1652 6.43308C21.1652 6.42748 21.1652 6.42188 21.1652 6.41631C21.1652 6.41073 21.1652 6.40517 21.1652 6.39962C21.1652 6.39408 21.1652 6.38855 21.1652 6.38304C21.1652 6.37752 21.1652 6.37202 21.1652 6.36654C21.1652 6.36106 21.1652 6.3556 21.1652 6.35014C21.1652 6.3447 21.1652 6.33926 21.1652 6.33384C21.1652 6.32843 21.1652 6.32302 21.1652 6.31764C21.1652 6.31225 21.1652 6.30688 21.1652 6.30153C21.1652 6.29618 21.1652 6.29084 21.1652 6.28552C21.1652 6.2802 21.1652 6.27489 21.1652 6.2696C21.1652 6.26431 21.1652 6.25904 21.1652 6.25379C21.1652 6.24853 21.1652 6.24329 21.1652 6.23807C21.1652 6.23285 21.1652 6.22764 21.1652 6.22245C21.1652 6.21726 21.1652 6.21209 21.1652 6.20693C21.1652 6.20177 21.1652 6.19663 21.1652 6.19151C21.1652 6.18639 21.1652 6.18128 21.1652 6.17619C21.1652 6.1711 21.1652 6.16603 21.1652 6.16097C21.1652 6.15592 21.1652 6.15088 21.1652 6.14586C21.1652 6.14083 21.1652 6.13583 21.1652 6.13084C21.1652 6.12585 21.1652 6.12088 21.1652 6.11593C21.1652 6.11097 21.1652 6.10604 21.1652 6.10112C21.1652 6.0962 21.1652 6.09129 21.1652 6.08641C21.1652 6.08152 21.1652 6.07665 21.1652 6.0718C21.1652 6.06695 21.1652 6.06212 21.1652 6.0573C21.1652 6.05248 21.1652 6.04769 21.1652 6.0429C21.1652 6.03812 21.1652 6.03336 21.1652 6.02861C21.1652 6.02387 21.1652 6.01914 21.1652 6.01442C21.1652 6.00971 21.1652 6.00502 21.1652 6.00034C21.1652 5.99567 21.1652 5.99101 21.1652 5.98637C21.1652 5.98173 21.1652 5.9771 21.1652 5.9725C21.1652 5.96789 21.1652 5.96331 21.1652 5.95874C21.1652 5.95417 21.1652 5.94962 21.1652 5.94508C21.1652 5.94055 21.1652 5.93603 21.1652 5.93153C21.1652 5.92704 21.1652 5.92256 21.1652 5.9181C21.1652 5.91363 21.1652 5.90919 21.1652 5.90477C21.1652 5.90034 21.1652 5.89593 21.1652 5.89154C21.1652 5.88716 21.1652 5.88278 21.1652 5.87843C21.1652 5.87408 21.1652 5.86975 21.1652 5.86543C21.1652 5.86112 21.1652 5.85682 21.1652 5.85254C21.1652 5.84826 21.1652 5.844 21.1652 5.83976C21.1652 5.83552 21.1652 5.8313 21.1652 5.82709C21.1652 5.82289 21.1652 5.8187 21.1652 5.81453C21.1652 5.81037 21.1652 5.80622 21.1652 5.80209C21.1652 5.79796 21.1652 5.79385 21.1652 5.78976C21.1652 5.78566 21.1652 5.78159 21.1652 5.77754C21.1652 5.77348 21.1652 5.76945 21.1652 5.76543C21.1652 5.76142 21.1652 5.75742 21.1652 5.75344C21.1652 5.74946 21.1652 5.7455 21.1652 5.74156C21.1652 5.73762 21.1652 5.7337 21.1652 5.7298C21.1652 5.7259 21.1652 5.72202 21.1652 5.71815C21.1652 5.71429 21.1652 5.71045 21.1652 5.70662C21.1652 5.7028 21.1652 5.69899 21.1652 5.69521C21.1652 5.69142 21.1652 5.68765 21.1652 5.68391C21.1652 5.68016 21.1652 5.67643 21.1652 5.67273C21.1652 5.66902 21.1652 5.66533 21.1652 5.66166C21.1652 5.65799 21.1652 5.65435 21.1652 5.65072C21.1652 5.64709 21.1652 5.64348 21.1652 5.63989C21.1652 5.6363 21.1652 5.63273 21.1652 5.62918C21.1652 5.62563 21.1652 5.6221 21.1652 5.61859C21.1652 5.61508 21.1652 5.61159 21.1652 5.60812C21.1652 5.60465 21.1652 5.6012 21.1652 5.59777C21.1652 5.59434 21.1652 5.59093 21.1652 5.58754C21.1652 5.58415 21.1652 5.58078 21.1652 5.57743C21.1652 5.57408 21.1652 5.57076 21.1652 5.56745C21.1652 5.56414 21.1652 5.56085 21.1652 5.55758C21.1652 5.55431 21.1652 5.55107 21.1652 5.54784C21.1652 5.54461 21.1652 5.54141 21.1652 5.53822C21.1652 5.53503 21.1652 5.53187 21.1652 5.52872C21.1652 5.52558 21.1652 5.52246 21.1652 5.51935C21.1652 5.51625 21.1652 5.51317 21.1652 5.5101C21.1652 5.50704 21.1652 5.504 21.1652 5.50098C21.1652 5.49796 21.1652 5.49496 21.1652 5.49198C21.1652 5.489 21.1652 5.48604 21.1652 5.48311C21.1652 5.48017 21.1652 5.47726 21.1652 5.47436C21.1652 5.47147 21.1652 5.46859 21.1652 5.46574C21.1652 5.46289 21.1652 5.46006 21.1652 5.45725C21.1652 5.45444 21.1652 5.45165 21.1652 5.44888C21.1652 5.44611 21.1652 5.44336 21.1652 5.44064C21.1652 5.43791 21.1652 5.43521 21.1652 5.43253C21.1652 5.42985 21.1652 5.42719 21.1652 5.42455C21.1652 5.42191 21.1652 5.41929 21.1652 5.41669C21.1652 5.4141 21.1652 5.41152 21.1652 5.40897C21.1652 5.40642 21.1652 5.40388 21.1652 5.40137C21.1652 5.39886 21.1652 5.39638 21.1652 5.39391C21.1652 5.39144 21.1652 5.389 21.1652 5.38658C21.1652 5.38415 21.1652 5.38175 21.1652 5.37938C21.1652 5.377 21.1652 5.37464 21.1652 5.37231C21.1652 5.36997 21.1652 5.36766 21.1652 5.36537C21.1652 5.36308 21.1652 5.36081 21.1652 5.35856C21.1652 5.35632 21.1652 5.35409 21.1652 5.35189C21.1652 5.34969 21.1652 5.34751 21.1652 5.34535C21.1652 5.34319 21.1652 5.34106 21.1652 5.33894C21.1652 5.33683 21.1652 5.33474 21.1652 5.33267C21.1652 5.33061 21.1652 5.32856 21.1652 5.32654C21.1652 5.32451 21.1652 5.32251 21.1652 5.32054C21.1652 5.31856 21.1652 5.3166 21.1652 5.31467C21.1652 5.31274 21.1652 5.31083 21.1652 5.30894C21.1652 5.30706 21.1652 5.30519 21.1652 5.30335C21.1652 5.30151 21.1652 5.29969 21.1652 5.29789C21.1652 5.2961 21.1652 5.29433 21.1652 5.29258C21.1652 5.29083 21.1652 5.2891 21.1652 5.2874C21.1652 5.28569 21.1652 5.28401 21.1652 5.28235C21.1652 5.2807 21.1652 5.27906 21.1652 5.27745C21.1652 5.27584 21.1652 5.27425 21.1652 5.27269C21.1652 5.27112 21.1652 5.26958 21.1652 5.26806C21.1652 5.26654 21.1652 5.26505 21.1652 5.26358C21.1652 5.2621 21.1652 5.26066 21.1652 5.25923C21.1652 5.25781 21.1652 5.25641 21.1652 5.25503C21.1652 5.25365 21.1652 5.2523 21.1652 5.25097C21.1652 5.24964 21.1652 5.24833 21.1652 5.24705C21.1652 5.24577 21.1652 5.24451 21.1652 5.24327C21.1652 5.24204 21.1652 5.24082 21.1652 5.23964C21.1652 5.23845 21.1652 5.23728 21.1652 5.23614C21.1652 5.235 21.1652 5.23389 21.1652 5.2328C21.1652 5.2317 21.1652 5.23064 21.1652 5.22959C21.1652 5.22855 21.1652 5.22753 21.1652 5.22653C21.1652 5.22554 21.1652 5.22457 21.1652 5.22362C21.1652 5.22267 21.1652 5.22175 21.1652 5.22085C21.1652 5.21995 21.1652 5.21908 21.1652 5.21823C21.1652 5.21738 21.1652 5.21655 21.1652 5.21575C21.1652 5.21495 21.1652 5.21417 21.1652 5.21342C21.1652 5.21267 21.1652 5.21194 21.1652 5.21123C21.1652 5.21053 21.1652 5.20985 21.1652 5.2092C21.1652 5.20854 21.1652 5.20792 21.1652 5.20731C21.1652 5.20671 21.1652 5.20613 21.1652 5.20557C21.1652 5.20502 21.1652 5.20449 21.1652 5.20398C21.1652 5.20348 21.1652 5.203 21.1652 5.20254C21.1652 5.20209 21.1652 5.20165 21.1652 5.20125C21.1652 5.20084 21.1652 5.20046 21.1652 5.20011C21.1652 5.19975 21.1652 5.19942 21.1652 5.19912C21.1652 5.19881 21.1652 5.19853 21.1652 5.19828C21.1652 5.19803 21.1652 5.1978 21.1652 5.19759C21.1652 5.19739 21.1652 5.19721 21.1652 5.19706C21.1652 5.1969 21.1652 5.19678 21.1652 5.19667C21.1652 5.19657 21.1652 5.19649 21.1652 5.19644C21.1652 5.19639 21.1652 5.19637 20.1652 5.19637C19.1652 5.19637 19.1652 5.19639 19.1652 5.19644C19.1652 5.19649 19.1652 5.19657 19.1652 5.19667C19.1652 5.19678 19.1652 5.1969 19.1652 5.19706C19.1652 5.19721 19.1652 5.19739 19.1652 5.19759C19.1652 5.1978 19.1652 5.19803 19.1652 5.19828C19.1652 5.19853 19.1652 5.19881 19.1652 5.19912C19.1652 5.19942 19.1652 5.19975 19.1652 5.20011C19.1652 5.20046 19.1652 5.20084 19.1652 5.20125C19.1652 5.20165 19.1652 5.20209 19.1652 5.20254C19.1652 5.203 19.1652 5.20348 19.1652 5.20398C19.1652 5.20449 19.1652 5.20502 19.1652 5.20557C19.1652 5.20613 19.1652 5.20671 19.1652 5.20731C19.1652 5.20792 19.1652 5.20854 19.1652 5.2092C19.1652 5.20985 19.1652 5.21053 19.1652 5.21123C19.1652 5.21194 19.1652 5.21267 19.1652 5.21342C19.1652 5.21417 19.1652 5.21495 19.1652 5.21575C19.1652 5.21655 19.1652 5.21738 19.1652 5.21823C19.1652 5.21908 19.1652 5.21995 19.1652 5.22085C19.1652 5.22175 19.1652 5.22267 19.1652 5.22362C19.1652 5.22457 19.1652 5.22554 19.1652 5.22653C19.1652 5.22753 19.1652 5.22855 19.1652 5.22959C19.1652 5.23064 19.1652 5.2317 19.1652 5.2328C19.1652 5.23389 19.1652 5.235 19.1652 5.23614C19.1652 5.23728 19.1652 5.23845 19.1652 5.23964C19.1652 5.24082 19.1652 5.24204 19.1652 5.24327C19.1652 5.24451 19.1652 5.24577 19.1652 5.24705C19.1652 5.24833 19.1652 5.24964 19.1652 5.25097C19.1652 5.2523 19.1652 5.25365 19.1652 5.25503C19.1652 5.25641 19.1652 5.25781 19.1652 5.25923C19.1652 5.26066 19.1652 5.2621 19.1652 5.26358C19.1652 5.26505 19.1652 5.26654 19.1652 5.26806C19.1652 5.26958 19.1652 5.27112 19.1652 5.27269C19.1652 5.27425 19.1652 5.27584 19.1652 5.27745C19.1652 5.27906 19.1652 5.2807 19.1652 5.28235C19.1652 5.28401 19.1652 5.28569 19.1652 5.2874C19.1652 5.2891 19.1652 5.29083 19.1652 5.29258C19.1652 5.29433 19.1652 5.2961 19.1652 5.29789C19.1652 5.29969 19.1652 5.30151 19.1652 5.30335C19.1652 5.30519 19.1652 5.30706 19.1652 5.30894C19.1652 5.31083 19.1652 5.31274 19.1652 5.31467C19.1652 5.3166 19.1652 5.31856 19.1652 5.32054C19.1652 5.32251 19.1652 5.32451 19.1652 5.32654C19.1652 5.32856 19.1652 5.33061 19.1652 5.33267C19.1652 5.33474 19.1652 5.33683 19.1652 5.33894C19.1652 5.34106 19.1652 5.34319 19.1652 5.34535C19.1652 5.34751 19.1652 5.34969 19.1652 5.35189C19.1652 5.35409 19.1652 5.35632 19.1652 5.35856C19.1652 5.36081 19.1652 5.36308 19.1652 5.36537C19.1652 5.36766 19.1652 5.36997 19.1652 5.37231C19.1652 5.37464 19.1652 5.377 19.1652 5.37938C19.1652 5.38175 19.1652 5.38415 19.1652 5.38658C19.1652 5.389 19.1652 5.39144 19.1652 5.39391C19.1652 5.39638 19.1652 5.39886 19.1652 5.40137C19.1652 5.40388 19.1652 5.40642 19.1652 5.40897C19.1652 5.41152 19.1652 5.4141 19.1652 5.41669C19.1652 5.41929 19.1652 5.42191 19.1652 5.42455C19.1652 5.42719 19.1652 5.42985 19.1652 5.43253C19.1652 5.43521 19.1652 5.43791 19.1652 5.44064C19.1652 5.44336 19.1652 5.44611 19.1652 5.44888C19.1652 5.45165 19.1652 5.45444 19.1652 5.45725C19.1652 5.46006 19.1652 5.46289 19.1652 5.46574C19.1652 5.46859 19.1652 5.47147 19.1652 5.47436C19.1652 5.47726 19.1652 5.48017 19.1652 5.48311C19.1652 5.48604 19.1652 5.489 19.1652 5.49198C19.1652 5.49496 19.1652 5.49796 19.1652 5.50098C19.1652 5.504 19.1652 5.50704 19.1652 5.5101C19.1652 5.51317 19.1652 5.51625 19.1652 5.51935C19.1652 5.52246 19.1652 5.52558 19.1652 5.52872C19.1652 5.53187 19.1652 5.53503 19.1652 5.53822C19.1652 5.54141 19.1652 5.54461 19.1652 5.54784C19.1652 5.55107 19.1652 5.55431 19.1652 5.55758C19.1652 5.56085 19.1652 5.56414 19.1652 5.56745C19.1652 5.57076 19.1652 5.57408 19.1652 5.57743C19.1652 5.58078 19.1652 5.58415 19.1652 5.58754C19.1652 5.59093 19.1652 5.59434 19.1652 5.59777C19.1652 5.6012 19.1652 5.60465 19.1652 5.60812C19.1652 5.61159 19.1652 5.61508 19.1652 5.61859C19.1652 5.6221 19.1652 5.62563 19.1652 5.62918C19.1652 5.63273 19.1652 5.6363 19.1652 5.63989C19.1652 5.64348 19.1652 5.64709 19.1652 5.65072C19.1652 5.65435 19.1652 5.65799 19.1652 5.66166C19.1652 5.66533 19.1652 5.66902 19.1652 5.67273C19.1652 5.67643 19.1652 5.68016 19.1652 5.68391C19.1652 5.68765 19.1652 5.69142 19.1652 5.69521C19.1652 5.69899 19.1652 5.7028 19.1652 5.70662C19.1652 5.71045 19.1652 5.71429 19.1652 5.71815C19.1652 5.72202 19.1652 5.7259 19.1652 5.7298C19.1652 5.7337 19.1652 5.73762 19.1652 5.74156C19.1652 5.7455 19.1652 5.74946 19.1652 5.75344C19.1652 5.75742 19.1652 5.76142 19.1652 5.76543C19.1652 5.76945 19.1652 5.77348 19.1652 5.77754C19.1652 5.78159 19.1652 5.78566 19.1652 5.78976C19.1652 5.79385 19.1652 5.79796 19.1652 5.80209C19.1652 5.80622 19.1652 5.81037 19.1652 5.81453C19.1652 5.8187 19.1652 5.82289 19.1652 5.82709C19.1652 5.8313 19.1652 5.83552 19.1652 5.83976C19.1652 5.844 19.1652 5.84826 19.1652 5.85254C19.1652 5.85682 19.1652 5.86112 19.1652 5.86543C19.1652 5.86975 19.1652 5.87408 19.1652 5.87843C19.1652 5.88278 19.1652 5.88716 19.1652 5.89154C19.1652 5.89593 19.1652 5.90034 19.1652 5.90477C19.1652 5.90919 19.1652 5.91363 19.1652 5.9181C19.1652 5.92256 19.1652 5.92704 19.1652 5.93153C19.1652 5.93603 19.1652 5.94055 19.1652 5.94508C19.1652 5.94962 19.1652 5.95417 19.1652 5.95874C19.1652 5.96331 19.1652 5.96789 19.1652 5.9725C19.1652 5.9771 19.1652 5.98173 19.1652 5.98637C19.1652 5.99101 19.1652 5.99567 19.1652 6.00034C19.1652 6.00502 19.1652 6.00971 19.1652 6.01442C19.1652 6.01914 19.1652 6.02387 19.1652 6.02861C19.1652 6.03336 19.1652 6.03812 19.1652 6.0429C19.1652 6.04769 19.1652 6.05248 19.1652 6.0573C19.1652 6.06212 19.1652 6.06695 19.1652 6.0718C19.1652 6.07665 19.1652 6.08152 19.1652 6.08641C19.1652 6.09129 19.1652 6.0962 19.1652 6.10112C19.1652 6.10604 19.1652 6.11097 19.1652 6.11593C19.1652 6.12088 19.1652 6.12585 19.1652 6.13084C19.1652 6.13583 19.1652 6.14083 19.1652 6.14586C19.1652 6.15088 19.1652 6.15592 19.1652 6.16097C19.1652 6.16603 19.1652 6.1711 19.1652 6.17619C19.1652 6.18128 19.1652 6.18639 19.1652 6.19151C19.1652 6.19663 19.1652 6.20177 19.1652 6.20693C19.1652 6.21209 19.1652 6.21726 19.1652 6.22245C19.1652 6.22764 19.1652 6.23285 19.1652 6.23807C19.1652 6.24329 19.1652 6.24853 19.1652 6.25379C19.1652 6.25904 19.1652 6.26431 19.1652 6.2696C19.1652 6.27489 19.1652 6.2802 19.1652 6.28552C19.1652 6.29084 19.1652 6.29618 19.1652 6.30153C19.1652 6.30688 19.1652 6.31225 19.1652 6.31764C19.1652 6.32302 19.1652 6.32843 19.1652 6.33384C19.1652 6.33926 19.1652 6.3447 19.1652 6.35014C19.1652 6.3556 19.1652 6.36106 19.1652 6.36654C19.1652 6.37202 19.1652 6.37752 19.1652 6.38304C19.1652 6.38855 19.1652 6.39408 19.1652 6.39962C19.1652 6.40517 19.1652 6.41073 19.1652 6.41631C19.1652 6.42188 19.1652 6.42748 19.1652 6.43308C19.1652 6.43869 19.1652 6.44431 19.1652 6.44995C19.1652 6.45559 19.1652 6.46125 19.1652 6.46692C19.1652 6.47259 19.1652 6.47827 19.1652 6.48397C19.1652 6.48967 19.1652 6.49539 19.1652 6.50112C19.1652 6.50685 19.1652 6.5126 19.1652 6.51836C19.1652 6.52412 19.1652 6.5299 19.1652 6.53569C19.1652 6.54149 19.1652 6.54729 19.1652 6.55312C19.1652 6.55894 19.1652 6.56478 19.1652 6.57063C19.1652 6.57648 19.1652 6.58235 19.1652 6.58823C19.1652 6.59412 19.1652 6.60001 19.1652 6.60593C19.1652 6.61184 19.1652 6.61777 19.1652 6.62371C19.1652 6.62965 19.1652 6.63561 19.1652 6.64158C19.1652 6.64755 19.1652 6.65354 19.1652 6.65954C19.1652 6.66554 19.1652 6.67156 19.1652 6.67759C19.1652 6.68362 19.1652 6.68966 19.1652 6.69572C19.1652 6.70178 19.1652 6.70785 19.1652 6.71394C19.1652 6.72003 19.1652 6.72613 19.1652 6.73225C19.1652 6.73837 19.1652 6.7445 19.1652 6.75065C19.1652 6.75679 19.1652 6.76295 19.1652 6.76912C19.1652 6.7753 19.1652 6.78149 19.1652 6.78769C19.1652 6.79389 19.1652 6.80011 19.1652 6.80634C19.1652 6.81257 19.1652 6.81882 19.1652 6.82507C19.1652 6.83133 19.1652 6.83761 19.1652 6.84389C19.1652 6.85018 19.1652 6.85648 19.1652 6.86279C19.1652 6.86911 19.1652 6.87544 19.1652 6.88178C19.1652 6.88812 19.1652 6.89448 19.1652 6.90085C19.1652 6.90722 19.1652 6.9136 19.1652 6.92C19.1652 6.92639 19.1652 6.9328 19.1652 6.93923C19.1652 6.94565 19.1652 6.95209 19.1652 6.95854C19.1652 6.96499 19.1652 6.97145 19.1652 6.97793C19.1652 6.98441 19.1652 6.9909 19.1652 6.99741C19.1652 7.00391 19.1652 7.01043 19.1652 7.01696C19.1652 7.02349 19.1652 7.03003 19.1652 7.03659C19.1652 7.04315 19.1652 7.04972 19.1652 7.0563C19.1652 7.06289 19.1652 7.06948 19.1652 7.07609C19.1652 7.0827 19.1652 7.08933 19.1652 7.09596C19.1652 7.1026 19.1652 7.10925 19.1652 7.11591C19.1652 7.12257 19.1652 7.12924 19.1652 7.13593C19.1652 7.14262 19.1652 7.14932 19.1652 7.15603C19.1652 7.16275 19.1652 7.16947 19.1652 7.17621C19.1652 7.18295 19.1652 7.1897 19.1652 7.19646C19.1652 7.20323 19.1652 7.21 19.1652 7.21679C19.1652 7.22358 19.1652 7.23038 19.1652 7.23719C19.1652 7.24401 19.1652 7.25083 19.1652 7.25767C19.1652 7.26451 19.1652 7.27136 19.1652 7.27822C19.1652 7.28509 19.1652 7.29196 19.1652 7.29885C19.1652 7.30574 19.1652 7.31264 19.1652 7.31955C19.1652 7.32646 19.1652 7.33338 19.1652 7.34032C19.1652 7.34726 19.1652 7.3542 19.1652 7.36116C19.1652 7.36812 19.1652 7.3751 19.1652 7.38208C19.1652 7.38906 19.1652 7.39606 19.1652 7.40307C19.1652 7.41008 19.1652 7.4171 19.1652 7.42413C19.1652 7.43116 19.1652 7.4382 19.1652 7.44526C19.1652 7.45231 19.1652 7.45938 19.1652 7.46646C19.1652 7.47353 19.1652 7.48062 19.1652 7.48773C19.1652 7.49483 19.1652 7.50194 19.1652 7.50906C19.1652 7.51619 19.1652 7.52332 19.1652 7.53047C19.1652 7.53762 19.1652 7.54478 19.1652 7.55195C19.1652 7.55912 19.1652 7.5663 19.1652 7.57349C19.1652 7.58068 19.1652 7.58789 19.1652 7.5951C19.1652 7.60232 19.1652 7.60954 19.1652 7.61678C19.1652 7.62402 19.1652 7.63127 19.1652 7.63853C19.1652 7.64579 19.1652 7.65306 19.1652 7.66034C19.1652 7.66762 19.1652 7.67491 19.1652 7.68221C19.1652 7.68952 19.1652 7.69683 19.1652 7.70416C19.1652 7.71148 19.1652 7.71882 19.1652 7.72616C19.1652 7.73351 19.1652 7.74087 19.1652 7.74824C19.1652 7.7556 19.1652 7.76298 19.1652 7.77037C19.1652 7.77776 19.1652 7.78516 19.1652 7.79257C19.1652 7.79998 19.1652 7.8074 19.1652 7.81483C19.1652 7.82226 19.1652 7.82971 19.1652 7.83716C19.1652 7.84461 19.1652 7.85207 19.1652 7.85955C19.1652 7.86702 19.1652 7.8745 19.1652 7.88199C19.1652 7.88949 19.1652 7.89699 19.1652 7.90451C19.1652 7.91202 19.1652 7.91954 19.1652 7.92708C19.1652 7.93461 19.1652 7.94215 19.1652 7.94971C19.1652 7.95726 19.1652 7.96483 19.1652 7.9724C19.1652 7.97997 19.1652 7.98756 19.1652 7.99515C19.1652 8.00275 19.1652 8.01035 19.1652 8.01796C19.1652 8.02558 19.1652 8.0332 19.1652 8.04083C19.1652 8.04846 19.1652 8.05611 19.1652 8.06376C19.1652 8.07141 19.1652 8.07907 19.1652 8.08674C19.1652 8.09442 19.1652 8.1021 19.1652 8.10979C19.1652 8.11748 19.1652 8.12518 19.1652 8.13289C19.1652 8.14059 19.1652 8.14831 19.1652 8.15604C19.1652 8.16377 19.1652 8.17151 19.1652 8.17925C19.1652 8.187 19.1652 8.19476 19.1652 8.20252C19.1652 8.21029 19.1652 8.21806 19.1652 8.22584C19.1652 8.23363 19.1652 8.24142 19.1652 8.24922C19.1652 8.25702 19.1652 8.26483 19.1652 8.27265C19.1652 8.28047 19.1652 8.2883 19.1652 8.29614C19.1652 8.30398 19.1652 8.31182 19.1652 8.31968C19.1652 8.32753 19.1652 8.3354 19.1652 8.34327C19.1652 8.35114 19.1652 8.35902 19.1652 8.36691C19.1652 8.3748 19.1652 8.3827 19.1652 8.39061C19.1652 8.39852 19.1652 8.40643 19.1652 8.41436C19.1652 8.42228 19.1652 8.43022 19.1652 8.43816C19.1652 8.4461 19.1652 8.45405 19.1652 8.46201C19.1652 8.46997 19.1652 8.47793 19.1652 8.48591C19.1652 8.49388 19.1652 8.50187 19.1652 8.50986C19.1652 8.51785 19.1652 8.52585 19.1652 8.53386C19.1652 8.54186 19.1652 8.54988 19.1652 8.5579C19.1652 8.56593 19.1652 8.57396 19.1652 8.582C19.1652 8.59004 19.1652 8.59809 19.1652 8.60615C19.1652 8.6142 19.1652 8.62227 19.1652 8.63034C19.1652 8.63841 19.1652 8.64649 19.1652 8.65458C19.1652 8.66267 19.1652 8.67076 19.1652 8.67887C19.1652 8.68697 19.1652 8.69508 19.1652 8.7032C19.1652 8.71132 19.1652 8.71944 19.1652 8.72758C19.1652 8.73571 19.1652 8.74385 19.1652 8.752C19.1652 8.76015 19.1652 8.76831 19.1652 8.77647C19.1652 8.78463 19.1652 8.7928 19.1652 8.80098C19.1652 8.80916 19.1652 8.81735 19.1652 8.82554C19.1652 8.83373 19.1652 8.84193 19.1652 8.85014C19.1652 8.85835 19.1652 8.86656 19.1652 8.87479C19.1652 8.88301 19.1652 8.89124 19.1652 8.89947C19.1652 8.90771 19.1652 8.91595 19.1652 8.9242C19.1652 8.93245 19.1652 8.94071 19.1652 8.94898C19.1652 8.95724 19.1652 8.96551 19.1652 8.97379C19.1652 8.98207 19.1652 8.99035 19.1652 8.99864C19.1652 9.00693 19.1652 9.01523 19.1652 9.02354C19.1652 9.03184 19.1652 9.04015 19.1652 9.04847C19.1652 9.05679 19.1652 9.06511 19.1652 9.07344C19.1652 9.08178 19.1652 9.09011 19.1652 9.09846C19.1652 9.1068 19.1652 9.11515 19.1652 9.12351C19.1652 9.13187 19.1652 9.14023 19.1652 9.1486C19.1652 9.15697 19.1652 9.16535 19.1652 9.17373C19.1652 9.18211 19.1652 9.1905 19.1652 9.1989C19.1652 9.20729 19.1652 9.21569 19.1652 9.2241C19.1652 9.23251 19.1652 9.24092 19.1652 9.24934C19.1652 9.25776 19.1652 9.26618 19.1652 9.27461C19.1652 9.28304 19.1652 9.29148 19.1652 9.29992C19.1652 9.30837 19.1652 9.31682 19.1652 9.32527C19.1652 9.33373 19.1652 9.34219 19.1652 9.35065C19.1652 9.35912 19.1652 9.36759 19.1652 9.37607C19.1652 9.38455 19.1652 9.39303 19.1652 9.40152C19.1652 9.41001 19.1652 9.4185 19.1652 9.427C19.1652 9.4355 19.1652 9.44401 19.1652 9.45252C19.1652 9.46103 19.1652 9.46954 19.1652 9.47807C19.1652 9.48659 19.1652 9.49511 19.1652 9.50365C19.1652 9.51218 19.1652 9.52072 19.1652 9.52926C19.1652 9.5378 19.1652 9.54635 19.1652 9.5549C19.1652 9.56346 19.1652 9.57201 19.1652 9.58058C19.1652 9.58914 19.1652 9.59771 19.1652 9.60628C19.1652 9.61486 19.1652 9.62344 19.1652 9.63202C19.1652 9.6406 19.1652 9.64919 19.1652 9.65778C19.1652 9.66638 19.1652 9.67497 19.1652 9.68358C19.1652 9.69218 19.1652 9.70079 19.1652 9.7094C19.1652 9.71801 19.1652 9.72663 19.1652 9.73525C19.1652 9.74387 19.1652 9.7525 19.1652 9.76113C19.1652 9.76976 19.1652 9.77839 19.1652 9.78703C19.1652 9.79567 19.1652 9.80432 19.1652 9.81296C19.1652 9.82161 19.1652 9.83027 19.1652 9.83892C19.1652 9.84758 19.1652 9.85624 19.1652 9.86491C19.1652 9.87357 19.1652 9.88224 19.1652 9.89092C19.1652 9.89959 19.1652 9.90827 19.1652 9.91695C19.1652 9.92563 19.1652 9.93432 19.1652 9.94301C19.1652 9.9517 19.1652 9.9604 19.1652 9.9691C19.1652 9.97779 19.1652 9.9865 19.1652 9.9952C19.1652 10.0039 19.1652 10.0126 19.1652 10.0213C19.1652 10.03 19.1652 10.0388 19.1652 10.0475C19.1652 10.0562 19.1652 10.0649 19.1652 10.0737C19.1652 10.0824 19.1652 10.0911 19.1652 10.0999C19.1652 10.1086 19.1652 10.1173 19.1652 10.1261C19.1652 10.1348 19.1652 10.1436 19.1652 10.1523C19.1652 10.1611 19.1652 10.1698 19.1652 10.1786C19.1652 10.1873 19.1652 10.1961 19.1652 10.2049C19.1652 10.2136 19.1652 10.2224 19.1652 10.2312C19.1652 10.2399 19.1652 10.2487 19.1652 10.2575C19.1652 10.2663 19.1652 10.275 19.1652 10.2838C19.1652 10.2926 19.1652 10.3014 19.1652 10.3102C19.1652 10.319 19.1652 10.3278 19.1652 10.3366C19.1652 10.3454 19.1652 10.3542 19.1652 10.363C19.1652 10.3718 19.1652 10.3806 19.1652 10.3894C19.1652 10.3982 19.1652 10.407 19.1652 10.4158C19.1652 10.4246 19.1652 10.4334 19.1652 10.4422C19.1652 10.4511 19.1652 10.4599 19.1652 10.4687C19.1652 10.4775 19.1652 10.4863 19.1652 10.4952C19.1652 10.504 19.1652 10.5128 19.1652 10.5217C19.1652 10.5305 19.1652 10.5393 19.1652 10.5482C19.1652 10.557 19.1652 10.5658 19.1652 10.5747C19.1652 10.5835 19.1652 10.5924 19.1652 10.6012C19.1652 10.6101 19.1652 10.6189 19.1652 10.6278C19.1652 10.6366 19.1652 10.6455 19.1652 10.6543C19.1652 10.6632 19.1652 10.672 19.1652 10.6809C19.1652 10.6897 19.1652 10.6986 19.1652 10.7075C19.1652 10.7163 19.1652 10.7252 19.1652 10.7341C19.1652 10.7429 19.1652 10.7518 19.1652 10.7607C19.1652 10.7695 19.1652 10.7784 19.1652 10.7873C19.1652 10.7962 19.1652 10.805 19.1652 10.8139C19.1652 10.8228 19.1652 10.8317 19.1652 10.8405C19.1652 10.8494 19.1652 10.8583 19.1652 10.8672C19.1652 10.8761 19.1652 10.8849 19.1652 10.8938C19.1652 10.9027 19.1652 10.9116 19.1652 10.9205C19.1652 10.9294 19.1652 10.9383 19.1652 10.9472C19.1652 10.9561 19.1652 10.9649 19.1652 10.9738C19.1652 10.9827 19.1652 10.9916 19.1652 11.0005C19.1652 11.0094 19.1652 11.0183 19.1652 11.0272C19.1652 11.0361 19.1652 11.045 19.1652 11.0539C19.1652 11.0628 19.1652 11.0717 19.1652 11.0806C19.1652 11.0895 19.1652 11.0984 19.1652 11.1073C19.1652 11.1162 19.1652 11.1251 19.1652 11.134C19.1652 11.1429 19.1652 11.1518 19.1652 11.1607C19.1652 11.1696 19.1652 11.1785 19.1652 11.1875C19.1652 11.1964 19.1652 11.2053 19.1652 11.2142C19.1652 11.2231 19.1652 11.232 19.1652 11.2409C19.1652 11.2498 19.1652 11.2587 19.1652 11.2676C19.1652 11.2765 19.1652 11.2854 19.1652 11.2944C19.1652 11.3033 19.1652 11.3122 19.1652 11.3211C19.1652 11.33 19.1652 11.3389 19.1652 11.3478C19.1652 11.3567 19.1652 11.3656 19.1652 11.3745C19.1652 11.3835 19.1652 11.3924 19.1652 11.4013C19.1652 11.4102 19.1652 11.4191 19.1652 11.428C19.1652 11.4369 19.1652 11.4458 19.1652 11.4547C19.1652 11.4637 19.1652 11.4726 19.1652 11.4815C19.1652 11.4904 19.1652 11.4993 19.1652 11.5082C19.1652 11.5171 19.1652 11.526 19.1652 11.5349C19.1652 11.5438 19.1652 11.5528 19.1652 11.5617C19.1652 11.5706 19.1652 11.5795 19.1652 11.5884C19.1652 11.5973 19.1652 11.6062 19.1652 11.6151C19.1652 11.624 19.1652 11.6329 19.1652 11.6418C19.1652 11.6507 19.1652 11.6596 19.1652 11.6685C19.1652 11.6774 19.1652 11.6863 19.1652 11.6952C19.1652 11.7041 19.1652 11.713 19.1652 11.7219C19.1652 11.7308 19.1652 11.7397 19.1652 11.7486C19.1652 11.7575 19.1652 11.7664 19.1652 11.7753C19.1652 11.7842 19.1652 11.7931 19.1652 11.802C19.1652 11.8109 19.1652 11.8198 19.1652 11.8287C19.1652 11.8376 19.1652 11.8465 19.1652 11.8554C19.1652 11.8643 19.1652 11.8731 19.1652 11.882C19.1652 11.8909 19.1652 11.8998 19.1652 11.9087C19.1652 11.9176 19.1652 11.9264 19.1652 11.9353C19.1652 11.9442 19.1652 11.9531 19.1652 11.962C19.1652 11.9708 19.1652 11.9797 19.1652 11.9886C19.1652 11.9975 19.1652 12.0063 19.1652 12.0152C19.1652 12.0241 19.1652 12.033 19.1652 12.0418C19.1652 12.0507 19.1652 12.0596 19.1652 12.0684C19.1652 12.0773 19.1652 12.0861 19.1652 12.095C19.1652 12.1039 19.1652 12.1127 19.1652 12.1216C19.1652 12.1304 19.1652 12.1393 19.1652 12.1481C19.1652 12.157 19.1652 12.1658 19.1652 12.1747C19.1652 12.1835 19.1652 12.1924 19.1652 12.2012C19.1652 12.2101 19.1652 12.2189 19.1652 12.2277C19.1652 12.2366 19.1652 12.2454 19.1652 12.2543C19.1652 12.2631 19.1652 12.2719 19.1652 12.2808C19.1652 12.2896 19.1652 12.2984 19.1652 12.3072C19.1652 12.3161 19.1652 12.3249 19.1652 12.3337C19.1652 12.3425 19.1652 12.3513 19.1652 12.3601C19.1652 12.369 19.1652 12.3778 19.1652 12.3866C19.1652 12.3954 19.1652 12.4042 19.1652 12.413C19.1652 12.4218 19.1652 12.4306 19.1652 12.4394C19.1652 12.4482 19.1652 12.457 19.1652 12.4658C19.1652 12.4746 19.1652 12.4834 19.1652 12.4921C19.1652 12.5009 19.1652 12.5097 19.1652 12.5185C19.1652 12.5273 19.1652 12.536 19.1652 12.5448C19.1652 12.5536 19.1652 12.5624 19.1652 12.5711C19.1652 12.5799 19.1652 12.5887 19.1652 12.5974C19.1652 12.6062 19.1652 12.6149 19.1652 12.6237C19.1652 12.6324 19.1652 12.6412 19.1652 12.6499C19.1652 12.6587 19.1652 12.6674 19.1652 12.6762C19.1652 12.6849 19.1652 12.6936 19.1652 12.7024C19.1652 12.7111 19.1652 12.7198 19.1652 12.7286C19.1652 12.7373 19.1652 12.746 19.1652 12.7547C19.1652 12.7634 19.1652 12.7721 19.1652 12.7809C19.1652 12.7896 19.1652 12.7983 19.1652 12.807C19.1652 12.8157 19.1652 12.8244 19.1652 12.8331C19.1652 12.8418 19.1652 12.8504 19.1652 12.8591C19.1652 12.8678 19.1652 12.8765 19.1652 12.8852C19.1652 12.8939 19.1652 12.9025 19.1652 12.9112C19.1652 12.9199 19.1652 12.9285 19.1652 12.9372C19.1652 12.9458 19.1652 12.9545 19.1652 12.9632C19.1652 12.9718 19.1652 12.9805 19.1652 12.9891C19.1652 12.9977 19.1652 13.0064 19.1652 13.015C19.1652 13.0236 19.1652 13.0323 19.1652 13.0409C19.1652 13.0495 19.1652 13.0581 19.1652 13.0668C19.1652 13.0754 19.1652 13.084 19.1652 13.0926C19.1652 13.1012 19.1652 13.1098 19.1652 13.1184C19.1652 13.127 19.1652 13.1356 19.1652 13.1442C19.1652 13.1528 19.1652 13.1613 19.1652 13.1699C19.1652 13.1785 19.1652 13.1871 19.1652 13.1956C19.1652 13.2042 19.1652 13.2128 19.1652 13.2213C19.1652 13.2299 19.1652 13.2384 19.1652 13.247C19.1652 13.2555 19.1652 13.2641 19.1652 13.2726C19.1652 13.2811 19.1652 13.2897 19.1652 13.2982C19.1652 13.3067 19.1652 13.3152 19.1652 13.3238C19.1652 13.3323 19.1652 13.3408 19.1652 13.3493C19.1652 13.3578 19.1652 13.3663 19.1652 13.3748C19.1652 13.3833 19.1652 13.3918 19.1652 13.4002C19.1652 13.4087 19.1652 13.4172 19.1652 13.4257C19.1652 13.4341 19.1652 13.4426 19.1652 13.4511C19.1652 13.4595 19.1652 13.468 19.1652 13.4764C19.1652 13.4849 19.1652 13.4933 19.1652 13.5017C19.1652 13.5102 19.1652 13.5186 19.1652 13.527C19.1652 13.5355 19.1652 13.5439 19.1652 13.5523C19.1652 13.5607 19.1652 13.5691 19.1652 13.5775C19.1652 13.5859 19.1652 13.5943 19.1652 13.6027C19.1652 13.6111 19.1652 13.6194 19.1652 13.6278C19.1652 13.6362 19.1652 13.6446 19.1652 13.6529C19.1652 13.6613 19.1652 13.6696 19.1652 13.678C19.1652 13.6863 19.1652 13.6947 19.1652 13.703C19.1652 13.7114 19.1652 13.7197 19.1652 13.728C19.1652 13.7363 19.1652 13.7447 19.1652 13.753C19.1652 13.7613 19.1652 13.7696 19.1652 13.7779C19.1652 13.7862 19.1652 13.7945 19.1652 13.8027C19.1652 13.811 19.1652 13.8193 19.1652 13.8276C19.1652 13.8358 19.1652 13.8441 19.1652 13.8524C19.1652 13.8606 19.1652 13.8689 19.1652 13.8771C19.1652 13.8853 19.1652 13.8936 19.1652 13.9018C19.1652 13.91 19.1652 13.9182 19.1652 13.9265C19.1652 13.9347 19.1652 13.9429 19.1652 13.9511C19.1652 13.9593 19.1652 13.9675 19.1652 13.9757C19.1652 13.9838 19.1652 13.992 19.1652 14.0002C19.1652 14.0084 19.1652 14.0165 19.1652 14.0247C19.1652 14.0328 19.1652 14.041 19.1652 14.0491C19.1652 14.0572 19.1652 14.0654 19.1652 14.0735C19.1652 14.0816 19.1652 14.0897 19.1652 14.0979C19.1652 14.106 19.1652 14.1141 19.1652 14.1222C19.1652 14.1303 19.1652 14.1383 19.1652 14.1464C19.1652 14.1545 19.1652 14.1626 19.1652 14.1706C19.1652 14.1787 19.1652 14.1867 19.1652 14.1948C19.1652 14.2028 19.1652 14.2109 19.1652 14.2189C19.1652 14.2269 19.1652 14.235 19.1652 14.243C19.1652 14.251 19.1652 14.259 19.1652 14.267C19.1652 14.275 19.1652 14.283 19.1652 14.291C19.1652 14.2989 19.1652 14.3069 19.1652 14.3149C19.1652 14.3228 19.1652 14.3308 19.1652 14.3387C19.1652 14.3467 19.1652 14.3546 19.1652 14.3626C19.1652 14.3705 19.1652 14.3784 19.1652 14.3863C19.1652 14.3942 19.1652 14.4021 19.1652 14.41C19.1652 14.4179 19.1652 14.4258 19.1652 14.4337C19.1652 14.4416 19.1652 14.4495 19.1652 14.4573C19.1652 14.4652 19.1652 14.473 19.1652 14.4809C19.1652 14.4887 19.1652 14.4966 19.1652 14.5044C19.1652 14.5122 19.1652 14.52 19.1652 14.5278C19.1652 14.5356 19.1652 14.5434 19.1652 14.5512C19.1652 14.559 19.1652 14.5668 19.1652 14.5746C19.1652 14.5823 19.1652 14.5901 19.1652 14.5979C19.1652 14.6056 19.1652 14.6134 19.1652 14.6211C19.1652 14.6288 19.1652 14.6365 19.1652 14.6443C19.1652 14.652 19.1652 14.6597 19.1652 14.6674C19.1652 14.6751 19.1652 14.6828 19.1652 14.6905C19.1652 14.6981 19.1652 14.7058 19.1652 14.7135C19.1652 14.7211 19.1652 14.7288 19.1652 14.7364C19.1652 14.744 19.1652 14.7517 19.1652 14.7593C19.1652 14.7669 19.1652 14.7745 19.1652 14.7821C19.1652 14.7897 19.1652 14.7973 19.1652 14.8049C19.1652 14.8125 19.1652 14.8201 19.1652 14.8276C19.1652 14.8352 19.1652 14.8427 19.1652 14.8503C19.1652 14.8578 19.1652 14.8653 19.1652 14.8729C19.1652 14.8804 19.1652 14.8879 19.1652 14.8954C19.1652 14.9029 19.1652 14.9104 19.1652 14.9179C19.1652 14.9253 19.1652 14.9328 19.1652 14.9403C19.1652 14.9477 19.1652 14.9552 19.1652 14.9626C19.1652 14.9701 19.1652 14.9775 19.1652 14.9849C19.1652 14.9923 19.1652 14.9997 19.1652 15.0071C19.1652 15.0145 19.1652 15.0219 19.1652 15.0293C19.1652 15.0367 19.1652 15.044 19.1652 15.0514C19.1652 15.0587 19.1652 15.0661 19.1652 15.0734C19.1652 15.0808 19.1652 15.0881 19.1652 15.0954C19.1652 15.1027 19.1652 15.11 19.1652 15.1173C19.1652 15.1246 19.1652 15.1319 19.1652 15.1391C19.1652 15.1464 19.1652 15.1536 19.1652 15.1609C19.1652 15.1681 19.1652 15.1754 19.1652 15.1826C19.1652 15.1898 19.1652 15.197 19.1652 15.2042C19.1652 15.2114 19.1652 15.2186 19.1652 15.2258C19.1652 15.233 19.1652 15.2401 19.1652 15.2473C19.1652 15.2545 19.1652 15.2616 19.1652 15.2687C19.1652 15.2759 19.1652 15.283 19.1652 15.2901C19.1652 15.2972 19.1652 15.3043 19.1652 15.3114C19.1652 15.3185 19.1652 15.3256 19.1652 15.3326C19.1652 15.3397 19.1652 15.3467 19.1652 15.3538C19.1652 15.3608 19.1652 15.3678 19.1652 15.3749C19.1652 15.3819 19.1652 15.3889 19.1652 15.3959C19.1652 15.4029 19.1652 15.4098 19.1652 15.4168C19.1652 15.4238 19.1652 15.4307 19.1652 15.4377C19.1652 15.4446 19.1652 15.4516 19.1652 15.4585H21.1652ZM20.6124 4.30194L13.4667 0.729098L12.5723 2.51795L19.718 6.09079L20.6124 4.30194ZM9.35071 2.51795C10.3647 2.01094 11.5583 2.01094 12.5723 2.51795L13.4667 0.729098C11.8897 -0.0594392 10.0334 -0.0594385 8.45628 0.729098L9.35071 2.51795ZM14.4129 10.7158H10.9615V12.7158H14.4129V10.7158ZM10.9615 10.7158H7.51012V12.7158H10.9615V10.7158ZM11.9615 15.167V11.7158H9.9615V15.167H11.9615ZM11.9615 11.7158V8.26426H9.9615V11.7158H11.9615Z" fill="white"/>
</svg>
